<svg xmlns="http://www.w3.org/2000/svg" version="1.1" viewBox="0 0 345.6 121.5" width="240" height="84" role="img" aria-label="Maro">
  <path d="M96.7-.1h-19.4c-.6,0-1.2.4-1.5,1l-24.3,25.1-2.1,2.2-2.1-2.1L23,.8c-.3-.6-.8-1-1.5-1H2.2C1.3-.1.6.6.6,1.5v117.4c0,.9.7,1.6,1.6,1.6h17.7c.9,0,1.6-.7,1.6-1.6V26.3l19.6,19.9h0c2.2,2.2,5.2,3.5,8.5,3.5s5.5-1,7.6-2.7c.7-.5,1.3-1.2,1.8-1.8l18.4-18.9v92.6c0,.9.7,1.6,1.6,1.6h17.7c.9,0,1.6-.7,1.6-1.6V1.5c0-.9-.7-1.6-1.6-1.6Z" fill="currentColor" />
  <path d="M155.5,106.6v.4c0,0,2.9,12.4,2.9,12.4.2.6.8,1.2,1.5,1.2h17.8c.3,0,.5,0,.6-.3.1-.2.2-.4.1-.7L152,1.6c-.1-.6-.7-1.1-1.3-1.2h-17.1c-.5.1-1.1.6-1.2,1.2l-26.5,118c0,.3,0,.5.1.7.1.2.4.3.6.3h17.8c.6,0,1.2-.4,1.4-1l2.9-13h26.7ZM142.2,33.8l.5,3,8.3,49.8h-17.6l8.8-52.8Z" fill="currentColor" />
  <path d="M246.9,50.3l-.4-.4,1.9-1.8c6.1-5.9,9.5-9.2,9.5-18.3,0-21.7-18.9-29.4-36.5-29.4h-32.5c-.6,0-1.1.5-1.1,1.1v118c0,.6.5,1.1,1.1,1.1h17.8c.6,0,1.1-.5,1.1-1.1v-60.2h13.6c8.9,0,16.5,7.8,16.5,16.9v43.3c0,.6.5,1.1,1.1,1.1h17.8c.6,0,1.1-.5,1.1-1.1v-29.6c0-24.4-3.7-32.5-11-39.6ZM221.4,40.3h-13.6v-19.8h13.6c8.7,0,16.5.8,16.5,10.2s-8.4,9.6-16.5,9.6Z" fill="currentColor" />
  <path d="M341.8,37.1c0-20.3-16.5-36.8-36.7-36.8s-36.8,16.5-36.8,36.8v46.7c0,20.3,16.5,36.8,36.8,36.8s36.7-16.5,36.7-36.8v-46.7ZM321.8,83.9c0,9.2-7.5,16.7-16.7,16.7s-16.7-7.5-16.7-16.7v-46.7c0-9.2,7.5-16.7,16.7-16.7s16.7,7.5,16.7,16.7v46.7Z" fill="currentColor" />
</svg>
